<?xml version="1.0" standalone="no"?><!DOCTYPE svg PUBLIC "-//W3C//DTD SVG 1.1//EN" "http://www.w3.org/Graphics/SVG/1.1/DTD/svg11.dtd"><svg t="1579140917218" class="icon" viewBox="0 0 1024 1024" version="1.1" xmlns="http://www.w3.org/2000/svg" p-id="5532" width="128" height="128" xmlns:xlink="http://www.w3.org/1999/xlink"><defs><style type="text/css"></style></defs><path d="M897.938286 238.153143v767.012571a28.16 28.16 0 0 1-26.221715 17.92H139.190857a28.16 28.16 0 0 1-26.185143-17.92V36.205714c0-23.04 12.141714-35.181714 26.185143-35.181714h529.92a14.738286 14.738286 0 0 1 9.581714 3.218286v184.064a31.963429 31.963429 0 0 0 31.963429 31.963428h184.685714c2.084571 5.741714 2.962286 11.849143 2.56 17.92z" fill="#E5E7E6" p-id="5533"></path><path d="M894.098286 220.233143h-183.442286a31.963429 31.963429 0 0 1-31.963429-31.963429V4.205714l214.125715 214.125715 1.28 1.901714z" fill="#CECECE" p-id="5534"></path><path d="M871.716571 1023.707429H139.849143a26.843429 26.843429 0 0 1-26.843429-26.843429v-283.794286h784.932572v283.794286a26.258286 26.258286 0 0 1-26.221715 26.843429z" fill="#4B79BD" p-id="5535"></path><path d="M153.344 773.668571H220.16c29.696 0 51.931429 8.192 67.291429 24.576 14.628571 15.36 22.052571 37.632 22.052571 66.816 0 28.891429-7.424 51.2-22.016 66.816-15.36 16.384-37.668571 24.576-67.328 24.576H153.344v-182.784z m29.952 25.6v131.584h31.232c22.784 0 39.424-5.376 49.92-15.872 10.24-10.752 15.36-27.428571 15.36-49.92 0-23.04-5.12-39.936-15.36-50.176-10.496-10.496-27.136-15.616-49.92-15.616h-31.232z m235.52-29.184c27.904 0 49.92 8.96 66.048 27.136 15.36 17.152 23.04 39.936 23.04 68.096s-7.68 50.688-23.04 67.84c-16.128 17.92-38.144 26.88-66.048 26.88-28.16 0-50.176-9.216-66.048-27.136-15.36-17.408-22.784-39.936-22.784-67.584 0-27.904 7.424-50.468571 22.784-67.84 15.872-18.432 37.888-27.428571 66.048-27.428571z m0 26.331429c-18.944 0-33.536 6.436571-44.032 19.236571-9.984 12.288-14.848 28.672-14.848 49.664 0 20.736 4.864 37.12 14.848 49.371429 10.24 12.580571 25.088 18.980571 44.032 18.980571 18.944 0 33.536-6.144 43.776-18.176 9.984-12.068571 15.104-28.672 15.104-50.176 0-21.504-5.12-38.4-15.104-50.688-10.24-12.288-24.868571-18.176-43.776-18.176z m196.608-26.331429c21.504 0 39.424 5.632 53.248 16.896 13.312 10.752 21.211429 25.6 24.064 44.032h-29.184c-3.072-12.068571-8.704-20.736-17.188571-26.368-8.155429-5.632-18.651429-8.192-31.451429-8.192-19.2 0-33.536 6.4-43.264 19.712-8.96 11.776-13.312 28.16-13.312 49.152 0 21.504 4.352 38.144 13.056 49.664 9.472 12.288 24.32 18.651429 44.251429 18.651429 13.092571 0 23.844571-3.291429 32.036571-9.435429 8.704-6.948571 14.848-17.408 18.432-31.232h29.184c-4.096 21.504-13.568 38.144-28.672 50.176-14.08 11.264-30.976 16.896-50.688 16.896-30.464 0-53.248-9.728-68.096-28.672-13.056-16.384-19.456-38.4-19.456-66.048 0-27.136 6.656-49.408 20.224-66.304 15.36-19.456 37.632-28.928 66.816-28.928z m95.451429 3.584h36.644571l43.008 64.512 43.008-64.512h36.571429l-61.659429 88.32 65.792 94.464h-36.608l-47.104-70.656-47.104 70.656h-36.608l65.28-94.464-61.184-88.32z" fill="#FFFFFF" p-id="5536"></path><path d="M708.461714 290.706286l-77.421714 290.450285h-68.827429l-49.481142-189.403428a157.147429 157.147429 0 0 1-4.681143-32.036572h-0.731429a201.179429 201.179429 0 0 1-5.266286 32.036572l-50.651428 189.403428H379.977143L302.518857 290.706286h67.876572l43.154285 196.864c1.828571 8.630857 3.181714 19.529143 3.913143 32.621714h1.316572c0.621714-10.24 2.56-21.430857 5.851428-33.536l53.979429-195.949714h65.828571l49.078857 198.363428c2.011429 7.899429 3.584 18.139429 4.717715 30.756572h0.914285c0.512-10.861714 1.938286-21.504 4.315429-31.853715l42.203428-197.266285h62.793143z" fill="#4B79BD" p-id="5537"></path></svg>