<?xml version="1.0" standalone="no"?><!DOCTYPE svg PUBLIC "-//W3C//DTD SVG 1.1//EN" "http://www.w3.org/Graphics/SVG/1.1/DTD/svg11.dtd"><svg t="1579141088143" class="icon" viewBox="0 0 1024 1024" version="1.1" xmlns="http://www.w3.org/2000/svg" p-id="5716" xmlns:xlink="http://www.w3.org/1999/xlink" width="128" height="128"><defs><style type="text/css"></style></defs><path d="M863.5 245.432v715.817H271.213c-61.206 0-110.824-49.618-110.824-110.824V63.609h512.095l191.018 181.823z" fill="#FF6624" p-id="5717"></path><path d="M862.897 245.432v18.94H671.879V63.608l191.018 181.823z m-393.628 94.107c-23.604 4.953-45.233 16.732-62.52 34.328-23.13 23.548-35.707 54.694-35.414 87.701 0.293 32.81 13.292 63.596 36.603 86.688 23.298 23.077 54.174 35.787 86.941 35.787 0.379 0 0.748-0.002 1.128-0.005 33.01-0.295 63.927-13.425 87.058-36.972 17.284-17.596 28.676-39.433 33.207-63.122l-121.146 1.08-24.559 0.22-0.219-24.559-1.08-121.146m24.319-27.202l1.32 148.13 148.13-1.322c0.73 81.81-64.998 148.721-146.808 149.451-0.455 0.004-0.896 0.006-1.349 0.006-81.189 0-147.376-65.459-148.102-146.815-0.73-81.809 65-148.72 146.809-149.45z m34.079-30.403l1.32 148.13 148.13-1.321c-0.729-81.81-67.64-147.538-149.45-146.809z" fill="#D14919" p-id="5718"></path><path d="M671.88 63.609v181.823h191.017zM92.687 494.316h838.292v356.067H92.687z" fill="#FF9D7B" p-id="5719"></path><path d="M338.116 559.866c23.43 0 41.164 6.058 53.204 18.174s18.06 29.093 18.06 50.92c0 21.833-6.02 38.86-18.06 51.083-12.04 12.23-29.775 18.231-53.204 18.01h-70.94v95.62h-30.914V559.866h101.854z m-10.413 111.99c17.572 0.22 30.424-3.381 38.56-10.804 8.136-7.42 12.204-18.118 12.204-32.092 0-13.968-4.068-24.61-12.203-31.926-8.135-7.312-20.99-10.971-38.561-10.971h-60.527v85.794h60.527z m221.278-111.99c23.43 0 41.165 6.058 53.204 18.174 12.041 12.116 18.06 29.093 18.06 50.92 0 21.833-6.02 38.86-18.06 51.083-12.04 12.23-29.775 18.231-53.204 18.01h-70.94v95.62h-30.913V559.866H548.98z m-10.414 111.99c17.573 0.22 30.426-3.381 38.562-10.804 8.136-7.42 12.203-18.118 12.203-32.092 0-13.968-4.067-24.61-12.203-31.926-8.135-7.312-20.989-10.971-38.562-10.971h-60.525v85.794h60.525z m94.694-85.793v-26.197H819.07v26.197h-77.448v207.61h-30.914v-207.61H633.26z" fill="#FFFFFF" p-id="5720"></path></svg>