<?xml version="1.0" standalone="no"?><!DOCTYPE svg PUBLIC "-//W3C//DTD SVG 1.1//EN" "http://www.w3.org/Graphics/SVG/1.1/DTD/svg11.dtd"><svg t="1579141097545" class="icon" viewBox="0 0 1024 1024" version="1.1" xmlns="http://www.w3.org/2000/svg" p-id="5853" xmlns:xlink="http://www.w3.org/1999/xlink" width="128" height="128"><defs><style type="text/css"></style></defs><path d="M895.914667 1024H128a85.333333 85.333333 0 0 1-85.333333-85.333333V85.333333a85.333333 85.333333 0 0 1 85.333333-85.333333h426.666667v312.917333A113.749333 113.749333 0 0 0 668.416 426.666667H981.333333v512c0 47.104-38.229333 85.333333-85.418666 85.333333zM341.290667 469.333333h-170.666667v85.333334h42.666667v256h85.333333v-256h42.666667v-85.333334z m298.666666 0H554.666667c4.992-12.757333-32.213333 92.970667-42.666667 128l-42.666667-128H383.914667l42.666666 170.624-42.666666 170.709334H469.333333c-1.109333 0 38.570667-134.485333 38.826667-135.68 0.256 2.602667 45.610667 132.138667 46.506667 135.68h85.290666L597.333333 639.957333 639.957333 469.333333z m213.290667 0h-170.624v85.333334h42.666667v256h85.290666v-256h42.666667v-85.333334zM597.333333 298.581333V0l384 383.914667h-298.709333a85.248 85.248 0 0 1-85.290667-85.333334z" fill="#3CC3FF" p-id="5854"></path></svg>