<?xml version="1.0" standalone="no"?><!DOCTYPE svg PUBLIC "-//W3C//DTD SVG 1.1//EN" "http://www.w3.org/Graphics/SVG/1.1/DTD/svg11.dtd"><svg t="1579141102079" class="icon" viewBox="0 0 1024 1024" version="1.1" xmlns="http://www.w3.org/2000/svg" p-id="5987" xmlns:xlink="http://www.w3.org/1999/xlink" width="128" height="128"><defs><style type="text/css"></style></defs><path d="M863.390046 245.431805v715.817012H271.101441c-61.20599 0-110.824061-49.618071-110.824061-110.824061V63.608713h512.095167l191.017499 181.823092z" fill="#00A885" p-id="5988"></path><path d="M672.372547 63.608713v200.762443h191.017499v-18.939351z" fill="#007D76" p-id="5989"></path><path d="M672.372547 63.608713v181.823092h191.017499z" fill="#4BE2AC" p-id="5990"></path><path d="M730.386846 467.6407H614.358249v-58.014299h116.028597v58.014299z m0-160.395061H614.358249v58.014299h116.028597v-58.014299zM573.500703 409.626401H457.472106v58.014299h116.028597v-58.014299z m0-102.380762H457.472106v58.014299h116.028597v-58.014299zM416.613536 409.626401H300.584939v58.014299h116.028597v-58.014299z m0-102.380762H300.584939v58.014299h116.028597v-58.014299z" fill="#007D76" p-id="5991"></path><path d="M92.686982 494.316246h838.292438v356.066554h-838.292438z" fill="#4BE2AC" p-id="5992"></path><path d="M224.817302 559.866171h37.096896l57.923224 91.360777 60.526515-91.360777h34.493606l-76.797084 113.62792 81.677231 120.17708h-37.747719l-62.478983-96.600105-64.431452 96.600105h-34.493605l80.700996-120.17708-76.469625-113.62792z m250.889097 0v207.609385h123.005498v26.196638H444.792319v-233.805h30.91408z m266.349207 31.928176c-10.30674-7.53051-23.485901-11.2973-39.537481-11.2973-6.508227 0-12.910031 0.655939-19.200294 1.964748-6.294356 1.309832-11.876492 3.494591-16.758686 6.54916-4.881171 3.059686-8.786107 7.15291-11.713786 12.279674-2.928702 5.131881-4.394077 11.517311-4.394077 19.156292 0 7.204076 2.115174 13.047154 6.345522 17.519002 4.231371 4.476965 9.869788 8.135284 16.921391 10.969843 7.04751 2.839675 15.020088 5.188162 23.917736 7.04137 8.892531 1.856277 17.948791 3.87833 27.171849 6.057972a324.037071 324.037071 0 0 1 27.17185 7.695263c8.892531 2.947122 16.865109 6.932899 23.917736 11.952216 7.04751 5.024433 12.691043 11.354606 16.921391 18.993587 4.230348 7.644097 6.345522 17.246803 6.345522 28.816302 0 12.443403-2.765997 23.085788-8.29799 31.927153-5.53097 8.841366-12.639878 16.045441-21.313422 21.611204-8.679683 5.566786-18.386766 9.609869-29.124318 12.116969-10.738575 2.506077-21.425985 3.765767-32.05302 3.765767-13.016455 0-25.330922-1.638313-36.93419-4.91187-11.608386-3.27458-21.803585-8.238638-30.589692-14.900362-8.786107-6.656607-15.731286-15.170514-20.826328-25.541722-5.099135-10.366092-7.647167-22.645766-7.647167-36.839024h29.286c0 9.824763 1.89721 18.286482 5.694699 25.377994 3.793396 7.097652 8.786107 12.935614 14.968923 17.519002 6.182816 4.584412 13.393032 7.971555 21.639856 10.151198 8.241708 2.185782 16.702404 3.27458 25.382087 3.27458 6.940063 0 13.936407-0.654916 20.989033-1.964748 7.04751-1.309832 13.393032-3.545756 19.036566-6.712889 5.63944-3.163039 10.1952-7.476275 13.667277-12.935614 3.467985-5.454222 5.206582-12.443403 5.206582-20.956287 0-8.074909-2.115174-14.623046-6.345522-19.647479-4.230348-5.019317-9.873882-9.112542-16.921391-12.279675-7.052626-3.162016-15.025205-5.730515-23.917736-7.696286-8.896624-1.964748-17.952884-3.980661-27.171849-6.057972a363.739305 363.739305 0 0 1-27.17185-7.204076c-8.897647-2.727111-16.870226-6.329149-23.917735-10.806113-7.052626-4.471848-12.69002-10.258645-16.921392-17.355273-4.230348-7.091512-6.344498-15.989159-6.344498-26.687826 0-11.788487 2.384303-21.99085 7.158027-30.617322 4.76963-8.621355 11.115152-15.717983 19.037588-21.284769 7.916297-5.566786 16.921391-9.711176 27.009144-12.443403 10.087753-2.727111 20.444635-4.093225 31.076786-4.093225 11.927657 0 22.992667 1.422396 33.19196 4.256954 10.1952 2.838651 19.144012 7.315616 26.846438 13.425777 7.697309 6.114255 13.773701 13.809517 18.223037 23.085788 4.444219 9.281387 6.885827 20.3597 7.321755 33.236986h-29.287023c-1.738597-16.807804-7.757684-28.980032-18.059308-36.511566z" fill="#FFFFFF" p-id="5993"></path></svg>